<svg xmlns="http://www.w3.org/2000/svg" xmlns:xlink="http://www.w3.org/1999/xlink" width="62" height="62" viewBox="0 0 62 62">
    <defs>
        <path id="a" d="M0 .031h10.881v30.783H0z"/>
        <path id="c" d="M.044.031h10.881v30.783H.044z"/>
    </defs>
    <g fill="none" fill-rule="evenodd">
        <circle cx="31" cy="31" r="30.5" fill="#FFF" stroke="#E5E5E5"/>
        <g transform="translate(16 15.105)">
            <mask id="b" fill="#fff">
                <use xlink:href="#a"/>
            </mask>
            <path fill="#CADA2A" d="M9.02 1.854c.526-.63 1.123-1.059 1.504-1.225.137-.059.266-.092.357-.102V.03c-.08.007-.232.033-.33.054C7.21.852 0 4.04 0 15.423c0 11.382 7.21 14.57 10.55 15.337.1.022.25.048.331.055v-.496a1.336 1.336 0 0 1-.357-.103c-.38-.165-.978-.594-1.503-1.224-2.102-2.524-2.705-7.265-2.646-13.57.06-6.304.544-11.045 2.646-13.568" mask="url(#b)"/>
        </g>
        <g transform="translate(35.005 15.105)">
            <mask id="d" fill="#fff">
                <use xlink:href="#c"/>
            </mask>
            <path fill="#CADA2A" d="M1.904 1.854C1.38 1.224.782.795.401.629A1.338 1.338 0 0 0 .044.527V.03c.08.007.232.033.331.054 3.34.767 10.55 3.955 10.55 15.338 0 11.382-7.21 14.57-10.55 15.337-.099.022-.25.048-.331.055v-.496c.09-.01.22-.044.357-.103.38-.165.978-.594 1.503-1.224 2.102-2.524 2.705-7.265 2.646-13.57-.06-6.304-.544-11.045-2.646-13.568" mask="url(#d)"/>
        </g>
    </g>
</svg>
