<svg width="62" height="62" viewBox="0 0 62 62" fill="none" xmlns="http://www.w3.org/2000/svg">
<mask id="mask0" mask-type="alpha" maskUnits="userSpaceOnUse" x="0" y="0" width="62" height="62">
<path d="M31 62C48.1208 62 62 48.1208 62 31C62 13.8792 48.1208 0 31 0C13.8792 0 0 13.8792 0 31C0 48.1208 13.8792 62 31 62Z" fill="white"/>
</mask>
<g mask="url(#mask0)">
<path d="M31 61.5C47.8447 61.5 61.5 47.8447 61.5 31C61.5 14.1553 47.8447 0.5 31 0.5C14.1553 0.5 0.5 14.1553 0.5 31C0.5 47.8447 14.1553 61.5 31 61.5Z" fill="white" stroke="#E5E5E5"/>
<path fill-rule="evenodd" clip-rule="evenodd" d="M30.854 40.882C28.377 40.882 26.919 39.162 26.439 38.597L26.249 38.373V41.603L26.296 41.635C27.6221 42.5954 29.2167 43.1142 30.854 43.118C33.764 43.118 35.798 41.296 35.798 38.687C35.798 37.647 35.485 36.74 34.868 35.993C34.333 35.303 33.619 34.717 32.69 34.197C29.443 32.39 28.593 31.866 28.593 30.614C28.593 29.614 29.656 28.887 31.121 28.887C32.496 28.887 33.787 29.433 34.959 30.511L35.139 30.676V27.79L35.089 27.759C33.9254 27.0214 32.5767 26.6282 31.199 26.625C28.244 26.625 26.18 28.4 26.18 30.941C26.18 31.893 26.452 32.668 27.036 33.381C27.785 34.285 28.576 34.739 31.193 36.244C31.995 36.701 33.339 37.651 33.339 38.896C33.339 40.14 32.075 40.882 30.854 40.882" fill="#E2231A"/>
<mask id="mask1" mask-type="alpha" maskUnits="userSpaceOnUse" x="32" y="13" width="15" height="32">
<path d="M32.142 13H46.978V44.283H32.142V13Z" fill="white"/>
</mask>
<g mask="url(#mask1)">
<path fill-rule="evenodd" clip-rule="evenodd" d="M35.658 21.515L43.115 14.056L43.141 14.03L42.138 13.026L42.11 13L32.206 22.907L32.142 22.971H45.522V44.283H46.978V21.515H35.658Z" fill="#E2231A"/>
</g>
<mask id="mask2" mask-type="alpha" maskUnits="userSpaceOnUse" x="15" y="13" width="15" height="32">
<path d="M15 13H29.836V44.283H15V13Z" fill="white"/>
</mask>
<g mask="url(#mask2)">
<path fill-rule="evenodd" clip-rule="evenodd" d="M26.32 21.515L18.863 14.056L18.837 14.03L19.841 13.026L19.867 13L29.773 22.907L29.836 22.971H16.456V44.283H15V21.515H26.32Z" fill="#E2231A"/>
</g>
</g>
</svg>
